<svg width="128" height="128" viewBox="0 0 128 128" fill="none" xmlns="http://www.w3.org/2000/svg"><style>path{fill:url(#paint0_linear_8_40)}@media(prefers-color-scheme:dark){path{fill:url(#paint0_linear_8_41)}}</style><g clip-path="url(#clip0_8_41)"><path d="M43.4835 103.536C39.8142 103.536 36.8488 103.024 34.5875 102 32.3262 100.933 30.5768 99.3333 29.3395 97.2 28.1448 95.024 27.2915 92.2933 26.7795 89.008 26.2248 86.192 25.8408 82.9067 25.6275 79.152c-.2133-3.79730000000001-.32-8-.32-12.608.0-5.248.128-10.1547.384-14.72C25.9902 47.216 26.5448 43.12 27.3555 39.536c1.152-4.864 3.0507-8.6827 5.696-11.456 2.688-2.816 6.6773-4.224 11.968-4.224C51.7182 23.856 58.0328 24.688 63.9635 26.352c5.9733 1.6213 11.4133 3.84 16.32 6.656C85.1902 35.7813 89.4142 38.9173 92.9555 42.416 96.4968 45.9147 99.2275 49.584 101.148 53.424 103.068 57.2213 104.028 60.9333 104.028 64.56 104.028 68.6987 103.025 72.7093 101.02 76.592 99.0568 80.432 96.2622 83.9947 92.6355 87.28 89.0088 90.5653 84.6782 93.424 79.6435 95.856 74.6515 98.288 69.0835 100.187 62.9395 101.552 56.8382 102.875 50.3528 103.536 43.4835 103.536zm8.704-19.072c4.0107.0 7.6373-.426699999999997 10.88-1.28C66.3528 82.288 69.2328 81.1147 71.7075 79.664 74.2248 78.1707 76.3155 76.5067 77.9795 74.672 79.6862 72.7947 80.9662 70.8533 81.8195 68.848 82.6728 66.8 83.0995 64.8373 83.0995 62.96c0-1.7067-.512000000000001-3.4987-1.536-5.376C80.5822 55.664 79.1528 53.808 77.2755 52.016 75.3982 50.1813 73.1368 48.5387 70.4915 47.088 67.8462 45.5947 64.8595 44.4213 61.5315 43.568 58.2462 42.672 54.6835 42.224 50.8435 42.224c-1.1947.0-2.1547.469300000000004-2.88 1.408C47.2382 44.5707 46.6622 45.8933 46.2355 47.6 45.9368 49.0933 45.6808 50.8 45.4675 52.72 45.2968 54.64 45.2115 56.6667 45.2115 58.8c0 4.6507.0852999999999966 8.64.256 11.968C45.6382 74.0533 45.9795 76.72 46.4915 78.768 47.4302 82.5653 49.3288 84.464 52.1875 84.464z"/></g><defs><linearGradient id="paint0_linear_8_40" x1="64" y1="19" x2="64" y2="132" gradientUnits="userSpaceOnUse"><stop stop-color="#090909"/><stop offset=".427083" stop-color="#000"/><stop offset="1" stop-color="#111"/></linearGradient><linearGradient id="paint0_linear_8_41" x1="64" y1="19" x2="64" y2="132" gradientUnits="userSpaceOnUse"><stop stop-color="#fafafa"/><stop offset=".427083" stop-color="#e4e4e7"/><stop offset="1" stop-color="#f4f4f5"/></linearGradient><clipPath id="clip0_8_41"><rect width="128" height="128" fill="#fff"/></clipPath></defs></svg>